<svg width="1280" height="370" xmlns="http://www.w3.org/2000/svg" xmlns:xlink="http://www.w3.org/1999/xlink" overflow="hidden"><defs><clipPath id="clip0"><rect x="0" y="0" width="1280" height="720"/></clipPath></defs><g clip-path="url(#clip0)"><rect x="0" y="0" width="1280" height="720" fill="#FFFFFF"/><rect x="603.5" y="128.5" width="13" height="114" stroke="#787878" stroke-width="1.33333" stroke-miterlimit="8" fill="#A5A5A5"/><rect x="645.5" y="128.5" width="12" height="114" stroke="#787878" stroke-width="1.33333" stroke-miterlimit="8" fill="#A5A5A5"/><rect x="686.5" y="128.5" width="12" height="114" stroke="#787878" stroke-width="1.33333" stroke-miterlimit="8" fill="#A5A5A5"/><rect x="728.5" y="128.5" width="12" height="114" stroke="#787878" stroke-width="1.33333" stroke-miterlimit="8" fill="#A5A5A5"/><rect x="769.5" y="128.5" width="12" height="114" stroke="#787878" stroke-width="1.33333" stroke-miterlimit="8" fill="#A5A5A5"/><rect x="810.5" y="128.5" width="12" height="114" stroke="#787878" stroke-width="1.33333" stroke-miterlimit="8" fill="#A5A5A5"/><rect x="851.5" y="128.5" width="12" height="114" stroke="#787878" stroke-width="1.33333" stroke-miterlimit="8" fill="#A5A5A5"/><rect x="315.5" y="128.5" width="12" height="114" stroke="#787878" stroke-width="1.33333" stroke-miterlimit="8" fill="#A5A5A5"/><rect x="356.5" y="128.5" width="12" height="114" stroke="#787878" stroke-width="1.33333" stroke-miterlimit="8" fill="#A5A5A5"/><rect x="398.5" y="128.5" width="12" height="114" stroke="#787878" stroke-width="1.33333" stroke-miterlimit="8" fill="#A5A5A5"/><rect x="439.5" y="128.5" width="12" height="114" stroke="#787878" stroke-width="1.33333" stroke-miterlimit="8" fill="#A5A5A5"/><rect x="480.5" y="128.5" width="12" height="114" stroke="#787878" stroke-width="1.33333" stroke-miterlimit="8" fill="#A5A5A5"/><rect x="521.5" y="128.5" width="12" height="114" stroke="#787878" stroke-width="1.33333" stroke-miterlimit="8" fill="#A5A5A5"/><rect x="562.5" y="128.5" width="12" height="114" stroke="#787878" stroke-width="1.33333" stroke-miterlimit="8" fill="#A5A5A5"/><rect x="190.5" y="128.5" width="12" height="114" stroke="#787878" stroke-width="1.33333" stroke-miterlimit="8" fill="#A5A5A5"/><rect x="232.5" y="128.5" width="12" height="114" stroke="#787878" stroke-width="1.33333" stroke-miterlimit="8" fill="#A5A5A5"/><rect x="273.5" y="128.5" width="12" height="114" stroke="#787878" stroke-width="1.33333" stroke-miterlimit="8" fill="#A5A5A5"/><rect x="168.5" y="140.5" width="710" height="89" stroke="#787878" stroke-width="1.33333" stroke-miterlimit="8" fill="#A5A5A5"/><path d="M7.50005 173.75 130 173.75 130 162.5 152.5 185 130 207.5 130 196.25 7.50005 196.25Z" stroke="#2F528F" stroke-width="1.33333" stroke-miterlimit="8" fill="#4472C4" fill-rule="evenodd"/><path d="M894.5 173.75 1017 173.75 1017 162.5 1039.5 185 1017 207.5 1017 196.25 894.5 196.25Z" stroke="#507E32" stroke-width="1.33333" stroke-miterlimit="8" fill="#70AD47" fill-rule="evenodd"/><text font-family="Calibri,Calibri_MSFontService,sans-serif" font-weight="400" font-size="27" transform="translate(20.4827 137)">Materials<tspan font-size="27" x="895.568" y="1">P</tspan>roduct</text><rect x="275.5" y="1.50005" width="104" height="57" stroke="#000000" stroke-width="1.33333" stroke-miterlimit="8"/><text fill="#FFFFFF" font-family="Calibri,Calibri_MSFontService,sans-serif" font-weight="400" font-size="24" transform="translate(300.635 37)">Chips</text><path d="M0.292006-0.16076 51.3395 92.5625 50.7555 92.884-0.292006 0.16076ZM53.9085 89.6261 54.2627 98.5634 46.9004 93.4843Z" fill="#4472C4" transform="matrix(1 0 0 -1 221.5 128.063)"/><path d="M379.5 29.1667 413.256 29.1668 413.256 29.8335 379.5 29.8334ZM411.923 25.5001 419.923 29.5002 411.923 33.5001Z" fill="#70AD47"/><rect x="470.5" y="1.50005" width="104" height="57" stroke="#000000" stroke-width="1.33333" stroke-miterlimit="8"/><text fill="#FFFFFF" font-family="Calibri,Calibri_MSFontService,sans-serif" font-weight="400" font-size="24" transform="translate(501.995 37)">CPU</text><rect x="686.5" y="0.500053" width="103" height="57" stroke="#000000" stroke-width="1.33333" stroke-miterlimit="8"/><text fill="#FFFFFF" font-family="Calibri,Calibri_MSFontService,sans-serif" font-weight="400" font-size="24" transform="translate(729.281 36)">…</text><path d="M0.28573-0.171667 25.0627 41.0682 24.4912 41.4115-0.28573 0.171667ZM27.519 38.0369 28.2103 46.9544 20.6615 42.1569Z" fill="#4472C4" transform="matrix(1 0 0 -1 688.5 104.454)"/><path d="M764.788 59.3319 785.011 93.9397 784.435 94.276 764.212 59.6682ZM787.504 90.9386 788.086 99.8638 780.596 94.9747Z" fill="#70AD47"/><path d="M419.5 29.1667 463.741 29.1668 463.741 29.8335 419.5 29.8334ZM462.408 25.5001 470.408 29.5002 462.408 33.5001Z" fill="#4472C4"/><path d="M574.776 29.3132 620.976 97.5817 620.423 97.9554 574.224 29.6869ZM623.265 94.4225 624.436 103.29 616.64 98.9061Z" fill="#70AD47"/></g></svg>