<svg width="1280" height="370" xmlns="http://www.w3.org/2000/svg" xmlns:xlink="http://www.w3.org/1999/xlink" overflow="hidden"><defs><clipPath id="clip0"><rect x="0" y="0" width="1280" height="720"/></clipPath></defs><g clip-path="url(#clip0)"><rect x="0" y="0" width="1280" height="370" fill="#FFFFFF"/><rect x="603.5" y="128.5" width="13" height="114" stroke="#787878" stroke-width="1.33333" stroke-miterlimit="8" fill="#A5A5A5"/><rect x="645.5" y="128.5" width="12" height="114" stroke="#787878" stroke-width="1.33333" stroke-miterlimit="8" fill="#A5A5A5"/><rect x="686.5" y="128.5" width="12" height="114" stroke="#787878" stroke-width="1.33333" stroke-miterlimit="8" fill="#A5A5A5"/><rect x="728.5" y="128.5" width="12" height="114" stroke="#787878" stroke-width="1.33333" stroke-miterlimit="8" fill="#A5A5A5"/><rect x="769.5" y="128.5" width="12" height="114" stroke="#787878" stroke-width="1.33333" stroke-miterlimit="8" fill="#A5A5A5"/><rect x="810.5" y="128.5" width="12" height="114" stroke="#787878" stroke-width="1.33333" stroke-miterlimit="8" fill="#A5A5A5"/><rect x="851.5" y="128.5" width="12" height="114" stroke="#787878" stroke-width="1.33333" stroke-miterlimit="8" fill="#A5A5A5"/><rect x="315.5" y="128.5" width="12" height="114" stroke="#787878" stroke-width="1.33333" stroke-miterlimit="8" fill="#A5A5A5"/><rect x="356.5" y="128.5" width="12" height="114" stroke="#787878" stroke-width="1.33333" stroke-miterlimit="8" fill="#A5A5A5"/><rect x="398.5" y="128.5" width="12" height="114" stroke="#787878" stroke-width="1.33333" stroke-miterlimit="8" fill="#A5A5A5"/><rect x="439.5" y="128.5" width="12" height="114" stroke="#787878" stroke-width="1.33333" stroke-miterlimit="8" fill="#A5A5A5"/><rect x="480.5" y="128.5" width="12" height="114" stroke="#787878" stroke-width="1.33333" stroke-miterlimit="8" fill="#A5A5A5"/><rect x="521.5" y="128.5" width="12" height="114" stroke="#787878" stroke-width="1.33333" stroke-miterlimit="8" fill="#A5A5A5"/><rect x="562.5" y="128.5" width="12" height="114" stroke="#787878" stroke-width="1.33333" stroke-miterlimit="8" fill="#A5A5A5"/><rect x="190.5" y="128.5" width="12" height="114" stroke="#787878" stroke-width="1.33333" stroke-miterlimit="8" fill="#A5A5A5"/><rect x="232.5" y="128.5" width="12" height="114" stroke="#787878" stroke-width="1.33333" stroke-miterlimit="8" fill="#A5A5A5"/><rect x="273.5" y="128.5" width="12" height="114" stroke="#787878" stroke-width="1.33333" stroke-miterlimit="8" fill="#A5A5A5"/><rect x="168.5" y="140.5" width="710" height="89" stroke="#787878" stroke-width="1.33333" stroke-miterlimit="8" fill="#A5A5A5"/><path d="M7.50005 173.75 130 173.75 130 162.5 152.5 185 130 207.5 130 196.25 7.50005 196.25Z" stroke="#2F528F" stroke-width="1.33333" stroke-miterlimit="8" fill="#4472C4" fill-rule="evenodd"/><path d="M894.5 173.75 1017 173.75 1017 162.5 1039.5 185 1017 207.5 1017 196.25 894.5 196.25Z" stroke="#507E32" stroke-width="1.33333" stroke-miterlimit="8" fill="#70AD47" fill-rule="evenodd"/><text font-family="Calibri,Calibri_MSFontService,sans-serif" font-weight="400" font-size="43" transform="translate(459.168 328)">Factory<tspan font-size="27" x="-438.685" y="-191">Materials</tspan><tspan font-size="27" x="456.882" y="-190">P</tspan><tspan font-size="27" x="470.716" y="-190">roduct</tspan></text><rect x="227.5" y="4.50005" width="104" height="57" stroke="#000000" stroke-width="1.33333" stroke-miterlimit="8"/><text fill="#FFFFFF" font-family="Calibri,Calibri_MSFontService,sans-serif" font-weight="400" font-size="24" transform="translate(246.161 40)">Screen</text><path d="M0.28573-0.171667 25.0627 41.0682 24.4912 41.4115-0.28573 0.171667ZM27.519 38.0369 28.2103 46.9544 20.6615 42.1569Z" fill="#4472C4" transform="matrix(1 0 0 -1 227.5 108.454)"/><path d="M300.781 61.3203 324.145 97.8159 323.584 98.1754 300.219 61.6798ZM326.514 94.716 327.459 103.61 319.777 99.0294Z" fill="#70AD47"/><rect x="377.5" y="3.50005" width="104" height="58" stroke="#000000" stroke-width="1.33333" stroke-miterlimit="8"/><text fill="#FFFFFF" font-family="Calibri,Calibri_MSFontService,sans-serif" font-weight="400" font-size="24" transform="translate(408.879 40)">CPU</text><path d="M0.28573-0.171667 25.0627 41.0682 24.4912 41.4115-0.28573 0.171667ZM27.519 38.0369 28.2103 46.9544 20.6615 42.1569Z" fill="#4472C4" transform="matrix(1 0 0 -1 377.5 108.454)"/><path d="M450.781 61.3203 474.145 97.8159 473.584 98.1754 450.219 61.6798ZM476.514 94.716 477.459 103.61 469.777 99.0294Z" fill="#70AD47"/><rect x="536.5" y="3.50005" width="104" height="57" stroke="#000000" stroke-width="1.33333" stroke-miterlimit="8"/><text fill="#FFFFFF" font-family="Calibri,Calibri_MSFontService,sans-serif" font-weight="400" font-size="24" transform="translate(552.351 39)">Battery</text><path d="M0.28573-0.171667 25.0627 41.0682 24.4912 41.4115-0.28573 0.171667ZM27.519 38.0369 28.2103 46.9544 20.6615 42.1569Z" fill="#4472C4" transform="matrix(1 0 0 -1 536.5 107.454)"/><path d="M609.781 60.3203 633.145 96.8159 632.584 97.1754 609.219 60.6798ZM635.514 93.716 636.459 102.61 628.777 98.0294Z" fill="#70AD47"/><rect x="688.5" y="0.500053" width="104" height="57" stroke="#000000" stroke-width="1.33333" stroke-miterlimit="8"/><text fill="#FFFFFF" font-family="Calibri,Calibri_MSFontService,sans-serif" font-weight="400" font-size="24" transform="translate(731.534 36)">…</text><path d="M0.28573-0.171667 25.0627 41.0682 24.4912 41.4115-0.28573 0.171667ZM27.519 38.0369 28.2103 46.9544 20.6615 42.1569Z" fill="#4472C4" transform="matrix(1 0 0 -1 688.5 104.454)"/><path d="M761.781 57.3203 785.145 93.8159 784.584 94.1754 761.219 57.6798ZM787.514 90.716 788.459 99.6103 780.777 95.0294Z" fill="#70AD47"/></g></svg>